PathFileType	4	(X/Y/Z)	./resultDataOpenSim/trcMotMarkerGrf/sub10/qtm-14-03.trc
DataRate	CameraRate	NumFrames	NumMarkers	Units	OrigDataRate	OrigDataStartFrame	OrigNumFrames
250.000000	250.000000	8	24	m	250.000000	303	484
Frame#	Time	L.Toe.Tip			R.Toe.Tip			L.Ankle.Lat			R.Ankle.Lat			L.Ankle.Med			R.Ankle.Med			L.Heel			R.Heel			L.Knee.Lat			R.Knee.Lat			L.Knee.Med			R.Knee.Med			L.Thigh.Upper			R.Thigh.Upper			L.ASIS			R.ASIS			V.Sacral			L.Acromium			R.Acromium			C7			L.Elbow			R.Elbow			L.Wrist.Lat			R.Wrist.Lat
		X1	Y1	Z1	X2	Y2	Z2	X3	Y3	Z3	X4	Y4	Z4	X5	Y5	Z5	X6	Y6	Z6	X7	Y7	Z7	X8	Y8	Z8	X9	Y9	Z9	X10	Y10	Z10	X11	Y11	Z11	X12	Y12	Z12	X13	Y13	Z13	X14	Y14	Z14	X15	Y15	Z15	X16	Y16	Z16	X17	Y17	Z17	X18	Y18	Z18	X19	Y19	Z19	X20	Y20	Z20	X21	Y21	Z21	X22	Y22	Z22	X23	Y23	Z23	X24	Y24	Z24

303	1.208	0.057969853	-0.022424562	-0.10330379	0.88604837	0.038460851	0.049319073	0.027555832	0.10790449	-0.15304585	0.74335298	0.055801463	0.084827597	0.057845873	0.11439775	-0.074911539	0.76336682	0.077503593	-6.4893616e-05	-0.025819723	0.14702244	-0.10824806	0.69213469	0.030593244	0.041247395	0.31251342	0.3689657	-0.17459666	0.78606573	0.44181371	0.10122712	0.32678701	0.32769081	-0.060237741	0.79304407	0.4597214	-0.027121528	0.45241125	0.72692879	-0.20199831	0.56230516	0.77549156	0.17646256	0.54370733	0.82582356	-0.14728126	0.60330389	0.8595647	0.088114617	0.38300421	0.86685414	0.012615391	0.54663437	1.3533931	-0.13949903	0.48696256	1.3662262	0.098272396	0.4659311	1.3574655	-0.031306499	0.56252436	1.2705167	-0.4580943	0.26813972	1.2910868	0.33242247	0.76571026	1.4197252	-0.51456327	0.24210884	1.5141088	0.45988189
304	1.212	0.060942533	-0.020139023	-0.10450878	0.886114	0.038405686	0.049442934	0.033610735	0.11156977	-0.15416525	0.74344878	0.055786997	0.084852856	0.063918808	0.11755573	-0.075896588	0.76365328	0.077442438	-3.4949395e-05	-0.019018492	0.15182782	-0.10955259	0.69217433	0.030697023	0.041220859	0.32097173	0.36944777	-0.17496038	0.78960491	0.44043697	0.10142479	0.33527306	0.32758737	-0.060740816	0.79869511	0.458442	-0.026893314	0.46101943	0.72721547	-0.20220798	0.56887635	0.77625553	0.17714161	0.55114402	0.82623154	-0.1466074	0.60989273	0.8603145	0.088565708	0.38894329	0.86765494	0.012661306	0.55350069	1.3538138	-0.13919058	0.49385318	1.3666626	0.099264269	0.47256728	1.3581815	-0.030684204	0.56957419	1.2687347	-0.45743031	0.27561755	1.2877533	0.33365626	0.77214577	1.4189526	-0.51401945	0.24836751	1.5100339	0.46206613
305	1.216	0.064226264	-0.017577992	-0.10592964	0.88617713	0.038363018	0.049545454	0.039694874	0.11546557	-0.15518678	0.74353942	0.055791082	0.084850257	0.070085771	0.12086926	-0.076787196	0.76393938	0.077381902	-3.6715729e-05	-0.012144273	0.1567309	-0.11058448	0.69221572	0.030796918	0.041155178	0.32973931	0.36983018	-0.17528099	0.79287987	0.43914138	0.1015394	0.34394046	0.32744324	-0.060967341	0.80390024	0.45716301	-0.026700674	0.46892231	0.72754872	-0.20236141	0.57540872	0.77709025	0.17776966	0.55849774	0.826729	-0.1459604	0.61639542	0.86107107	0.088977081	0.39489853	0.868454	0.012724852	0.56036512	1.3543002	-0.13892313	0.50071375	1.3671653	0.10023867	0.47920113	1.358978	-0.030074314	0.57662367	1.2668223	-0.45678941	0.28314917	1.2842967	0.33487807	0.77857664	1.4180201	-0.5135336	0.25467978	1.5057557	0.46433206
306	1.22	0.067833516	-0.01469717	-0.10759819	0.88623251	0.038329021	0.049632116	0.045880024	0.1195965	-0.15613726	0.74362502	0.055803852	0.084825319	0.076342365	0.1243449	-0.077590971	0.76422396	0.077318811	-6.3362666e-05	-0.0052026306	0.16171446	-0.11137155	0.69225203	0.030890792	0.041059425	0.33877477	0.37010777	-0.17555006	0.79615693	0.43797873	0.10166801	0.3528301	0.32726688	-0.060997054	0.80861683	0.45598184	-0.026531927	0.47645795	0.7279662	-0.20241345	0.58189631	0.77798587	0.17834573	0.5657645	0.82732325	-0.14533215	0.62281221	0.86182318	0.089356214	0.40110877	0.86912448	0.012767507	0.56721842	1.3548533	-0.138685	0.50754609	1.3677279	0.1011984	0.48583372	1.3598485	-0.029469539	0.58366735	1.2647962	-0.45615917	0.29073119	1.2807259	0.33607513	0.78500891	1.4169201	-0.51310085	0.26106177	1.5012685	0.46668605
307	1.224	0.071727248	-0.011468101	-0.10949285	0.88627168	0.038298534	0.049709175	0.052203452	0.12394365	-0.15701478	0.74369625	0.055813998	0.084789218	0.082706282	0.12798242	-0.078308817	0.76449604	0.077251363	-0.00010368141	0.001812844	0.16676266	-0.11195099	0.69227555	0.030974012	0.040946936	0.34809142	0.37027325	-0.17582202	0.79948776	0.43696116	0.10181083	0.36207382	0.32709761	-0.061033296	0.81283629	0.45496161	-0.026374686	0.48384538	0.72847947	-0.20235747	0.58831972	0.77892794	0.17887126	0.57292613	0.82802195	-0.14472539	0.62914726	0.86256421	0.089709086	0.40752793	0.86968035	0.012848739	0.57405351	1.3554692	-0.13846965	0.51434395	1.3683415	0.10214295	0.49244513	1.3607854	-0.02888187	0.59069347	1.2626659	-0.45552435	0.29835391	1.2770472	0.33724293	0.79144357	1.4156467	-0.51271497	0.2675192	1.496566	0.46912804
308	1.228	0.075888538	-0.007865173	-0.11156809	0.88629276	0.038268482	0.049781049	0.05867709	0.12846965	-0.15780681	0.74374509	0.055815098	0.084754564	0.089203658	0.13177164	-0.078942375	0.76474029	0.077184054	-0.00014472578	0.0089204401	0.1718696	-0.11235441	0.6922853	0.031047322	0.040832553	0.35771687	0.37033123	-0.17615829	0.80283518	0.43607881	0.10193219	0.37174963	0.32697164	-0.061221837	0.81659547	0.45411268	-0.026224301	0.49114952	0.72908521	-0.20220468	0.59465257	0.77990548	0.17935245	0.57995589	0.8288334	-0.1441618	0.63540534	0.86329723	0.090042414	0.41399154	0.87022178	0.013017677	0.58087389	1.3561386	-0.1382746	0.5210946	1.3689991	0.10306602	0.49901289	1.3617867	-0.028324344	0.59768642	1.2604331	-0.45488185	0.30600578	1.2732657	0.3383712	0.79787828	1.4141991	-0.51237116	0.27404607	1.4916484	0.47165095
309	1.232	0.080359198	-0.0038740281	-0.11378214	0.88630192	0.038238996	0.049848645	0.065303489	0.13314008	-0.15849556	0.7437745	0.05580959	0.084731161	0.095855721	0.13569275	-0.079499075	0.76494817	0.07712629	-0.00017719192	0.016145902	0.17703929	-0.11260263	0.69228617	0.031120052	0.040730087	0.36761195	0.37030215	-0.17655332	0.80617703	0.43532694	0.10201608	0.38172866	0.32691515	-0.061509171	0.81996631	0.45339963	-0.026086764	0.49836201	0.72977664	-0.20196848	0.60087406	0.78091517	0.17980019	0.58683572	0.82976596	-0.14366213	0.64159013	0.86403311	0.090367649	0.42038484	0.87083685	0.013257994	0.58768775	1.3568572	-0.13809941	0.52778848	1.3696976	0.10396204	0.50552721	1.3628546	-0.027798593	0.60463314	1.2580954	-0.4542335	0.31368126	1.2693875	0.33944307	0.80430244	1.4125796	-0.51206604	0.28063264	1.4865229	0.47424402
310	1.236	0.085195323	0.00047342898	-0.11609675	0.88630842	0.038211458	0.049909805	0.072089469	0.13794055	-0.15908089	0.74379851	0.055805809	0.084723587	0.10267525	0.13971861	-0.07999463	0.76512439	0.077085947	-0.00019919452	0.023517214	0.18227728	-0.11269963	0.69228412	0.031204011	0.040647903	0.37770054	0.37020845	-0.17696279	0.80951091	0.43471076	0.10206515	0.39174033	0.32696952	-0.061737883	0.8230263	0.4527679	-0.025971885	0.50546415	0.73054845	-0.20165926	0.60696895	0.78195743	0.18022211	0.59356555	0.83082859	-0.14322777	0.64770076	0.86478317	0.090696619	0.42665765	0.87156523	0.013526947	0.59449628	1.3576306	-0.13794419	0.53442348	1.3704378	0.10483232	0.5119869	1.363988	-0.027299092	0.61152269	1.2556542	-0.45357098	0.32138071	1.2654216	0.34044295	0.81069975	1.4107888	-0.51179495	0.28727419	1.481199	0.47689843
